<svg width="172" height="47" viewBox="0 0 172 47" fill="none" xmlns="http://www.w3.org/2000/svg">
<g clip-path="url(#clip0_95_2785)">
<path d="M57.4882 15.4941H65.4227V18.8511H63.4696V30.6553H65.4227V34H57.4882V30.6553H59.4169V25.9189H51.0673V30.6553H53.0204V34H45.098V30.6553H47.0145V18.8511H45.098V15.4941H53.0204V18.8511H51.0673V22.6963H59.4169V18.8511H57.4882V15.4941ZM77.6908 30.6553H79.5341L78.704 27.9941H73.0155L72.1854 30.6553H74.1385V34H67.1195V30.6553H68.4989L73.5404 15.4941H78.4354L83.3671 30.6553H84.7098V34H77.6908V30.6553ZM73.9799 24.8691H77.7152L75.8353 18.8511L73.9799 24.8691ZM86.3822 15.4941H96.1722C97.1244 15.4941 97.9748 15.6366 98.7235 15.9214C99.4722 16.2062 100.103 16.5887 100.616 17.0688C101.128 17.5409 101.519 18.0942 101.787 18.729C102.064 19.3556 102.203 20.0107 102.203 20.6943C102.203 21.321 102.133 21.8703 101.995 22.3423C101.865 22.8143 101.669 23.2334 101.409 23.5996C101.157 23.9658 100.843 24.2913 100.469 24.5762C100.095 24.8529 99.6675 25.1051 99.1874 25.333C99.6024 25.5446 99.9686 25.8701 100.286 26.3096C100.603 26.7409 100.843 27.3024 101.006 27.9941L101.629 30.3989H103.155L103.179 34H97.808L97.0756 29.6055C97.0023 29.0846 96.8884 28.637 96.7338 28.2627C96.5873 27.8802 96.3879 27.571 96.1356 27.335C95.8833 27.0908 95.5741 26.9118 95.2079 26.7979C94.8498 26.6839 94.4226 26.627 93.9261 26.627H92.3514V30.6553H94.0482V34H86.3822V30.6553H88.2987V18.8511H86.3822V15.4941ZM92.3514 18.8511V23.3311H94.7806C95.2445 23.3311 95.6595 23.2904 96.0258 23.209C96.4001 23.1195 96.7175 22.9852 96.9779 22.8062C97.2465 22.619 97.4499 22.387 97.5883 22.1104C97.7347 21.8337 97.808 21.5041 97.808 21.1216C97.808 20.4054 97.5516 19.848 97.0389 19.4492C96.5262 19.0505 95.7735 18.8511 94.7806 18.8511H92.3514ZM114.178 15.4941H122.1V18.8511H120.452L115.508 34H110.503L105.706 18.8511H103.924V15.4941H111.858V18.8511H109.881L113.103 29.3491L116.314 18.8511H114.178V15.4941ZM123.736 15.4941H138.457V21.8052H134.478V19.1807H129.729V22.8306H133.404V26.3706H129.729V30.6553H134.478V27.3716H138.457V34H123.736V30.6553H125.677V19.1807H123.736V15.4941ZM149.48 20.7065C149.44 20.4217 149.338 20.1532 149.175 19.9009C149.021 19.6486 148.817 19.4329 148.565 19.2539C148.321 19.0667 148.04 18.9202 147.723 18.8145C147.413 18.7087 147.088 18.6558 146.746 18.6558C146.437 18.6558 146.148 18.6883 145.879 18.7534C145.611 18.8185 145.375 18.9202 145.171 19.0586C144.976 19.1888 144.817 19.3597 144.695 19.5713C144.581 19.7829 144.524 20.0352 144.524 20.3281C144.524 20.6943 144.602 20.9873 144.756 21.207C144.919 21.4186 145.122 21.5936 145.367 21.7319C145.619 21.8703 145.896 21.9801 146.197 22.0615C146.498 22.1429 146.791 22.2324 147.076 22.3301L150.432 23.4531C150.896 23.6159 151.332 23.8397 151.739 24.1245C152.146 24.4093 152.495 24.7552 152.788 25.1621C153.09 25.569 153.326 26.0369 153.496 26.5659C153.667 27.0949 153.753 27.689 153.753 28.3481C153.753 29.2433 153.586 30.0612 153.252 30.8018C152.927 31.5423 152.467 32.1771 151.873 32.7061C151.279 33.235 150.567 33.646 149.737 33.939C148.907 34.2319 147.987 34.3784 146.978 34.3784C146.27 34.3784 145.599 34.297 144.964 34.1343C144.337 33.9797 143.763 33.7518 143.243 33.4507C142.722 33.1496 142.266 32.7915 141.875 32.3765C141.485 31.9533 141.18 31.4772 140.96 30.9482H139.703V27.2739H144.121V28.0308C144.121 28.397 144.178 28.7347 144.292 29.0439C144.414 29.3532 144.593 29.6217 144.829 29.8496C145.065 30.0775 145.363 30.2565 145.721 30.3867C146.079 30.5088 146.498 30.5698 146.978 30.5698C147.71 30.5698 148.268 30.403 148.65 30.0693C149.033 29.7275 149.224 29.2555 149.224 28.6533C149.224 28.3441 149.155 28.0877 149.016 27.8843C148.886 27.6727 148.715 27.4977 148.504 27.3594C148.292 27.2129 148.056 27.0908 147.796 26.9932C147.535 26.8955 147.279 26.806 147.027 26.7246L144.231 25.8213C143.702 25.6585 143.19 25.4307 142.693 25.1377C142.205 24.8447 141.77 24.4785 141.387 24.0391C141.013 23.5996 140.712 23.0869 140.484 22.501C140.264 21.9069 140.154 21.2314 140.154 20.4746C140.154 19.5957 140.317 18.8145 140.642 18.1309C140.968 17.4391 141.424 16.8573 142.01 16.3853C142.596 15.9132 143.291 15.5552 144.097 15.311C144.903 15.0669 145.786 14.9448 146.746 14.9448C147.503 14.9448 148.203 15.0343 148.846 15.2134C149.488 15.3843 150.062 15.6162 150.567 15.9092C151.079 16.2021 151.511 16.5399 151.861 16.9224C152.219 17.2967 152.491 17.6873 152.679 18.0942H153.899V21.7808H149.48V20.7065ZM158.965 30.6553H160.882V18.729H158.636V21.1216H154.656V15.4941H171.49V21.1216H167.486V18.729H164.934V30.6553H166.888V34H158.965V30.6553Z" fill="#374629"/>
<path d="M0.66848 8C-1.08026 15.6667 -0.468204 32.6 15.97 39C18.0102 31.1667 17.8062 14 0.66848 8Z" fill="#BAC76A"/>
<path d="M20.5478 36.5C29.991 30.5 30.3116 15.6667 29.2915 9C24.0452 9 18.0704 12.6667 15.7387 14.5C20.2854 19.7 20.8392 31.3333 20.5478 36.5Z" fill="#546A40"/>
</g>
<defs>
<clipPath id="clip0_95_2785">
<rect width="172" height="47" fill="white"/>
</clipPath>
</defs>
</svg>
